<?xml version="1.0" encoding="UTF-8"?>
<!-- Generator: Adobe Illustrator 22.0.1, SVG Export Plug-In . SVG Version: 6.00 Build 0)  -->
<svg version="1.1" id="Ebene_1" xmlns="http://www.w3.org/2000/svg" xmlns:xlink="http://www.w3.org/1999/xlink" x="0px" y="0px" viewBox="0 0 32 32" style="enable-background:new 0 0 32 32;" xml:space="preserve">
<style type="text/css">
	.st0{fill:#1E4592;}
</style>
<g>
	<ellipse class="st0" cx="5.8" cy="27.8" rx="5.3" ry="3.9"/>
	<path class="st0" d="M9.9,8.4L9.9,8.4c0.7,0,1.2,0.5,1.2,1.2v18.3c0,0.6-0.5,1.2-1.2,1.2h0c-0.6,0-1.2-0.5-1.2-1.2V9.6   C8.8,9,9.3,8.4,9.9,8.4z"/>
</g>
<path class="st0" d="M27.3,1L27.3,1c0.4,0.9,0.1,1.9-0.7,2.3l-15.3,7.8c-0.8,0.4-1.8,0.1-2.3-0.7l0,0C8.5,9.5,8.9,8.5,9.7,8.1  L25,0.3C25.9-0.1,26.9,0.2,27.3,1z"/>
<g>
	<ellipse class="st0" cx="22.2" cy="20.1" rx="5.3" ry="3.9"/>
	<path class="st0" d="M26.3,0.6L26.3,0.6c0.7,0,1.2,0.5,1.2,1.2V20c0,0.6-0.5,1.2-1.2,1.2h0c-0.6,0-1.2-0.5-1.2-1.2V1.8   C25.2,1.1,25.7,0.6,26.3,0.6z"/>
</g>
</svg>