<?xml version="1.0" encoding="UTF-8"?>
<!-- Generator: Adobe Illustrator 22.0.1, SVG Export Plug-In . SVG Version: 6.00 Build 0)  -->
<svg version="1.1" id="Ebene_1" xmlns="http://www.w3.org/2000/svg" xmlns:xlink="http://www.w3.org/1999/xlink" x="0px" y="0px" viewBox="0 0 32 32" style="enable-background:new 0 0 32 32;" xml:space="preserve">
<style type="text/css">
	.st0{fill:#1E4592;}
</style>
<path class="st0" d="M29.2,21.2L26.3,17c-1.1-4.6-2.6-7.4-4.6-8.6c-2-1.7-3.3-3.6-3.8-5.7c-0.2-3.7-2.5-3.3-3.8,0  c-0.8,2.3,0.3,5,1.8,7.7c1.4,2,1.4,3,0,3.2c-2.9-0.6-5.6-0.7-8.3-0.4c-2.1,0.5-2.7,3-0.9,4.5c-2.3,0.8-2.5,4.1,0,4.8  c-1.4,1.4-1.2,4,1.3,4.4c-1,1.7-0.4,3.1,1.3,3.8c3.4,0.8,7.1,0.9,10.9,0.4l3.4,0.7C27,29,29,25.4,29.2,21.2z"/>
</svg>